# xmcd CD database file
#
# Track frame offsets:
#	150
#	10462
#	13921
#	24106
#	35851
#	45587
#	56466
#	69118
#	88711
#	97450
#	115111
#	133076
#	140994
#	155408
#	161804
#	172847
#	188231
#	201174
#	213426
#	223403
#
# Disc length: 3051 seconds
#
# Revision: 4
# Processed by: cddbd v1.5.2PL0 Copyright (c) Steve Scherf et al.
# Submitted via: CDex 1.95
#
DISCID=2a0be914
DTITLE=Various Artist - Golden Country Hits Vol24 Cd1
DYEAR=1999
DGENRE=Oldies
TTITLE0=Patsy Cline - Walking Dream
TTITLE1=Bob Wills - Texas Playboy Theme
TTITLE2=Faron Young - Satisfied Mind
TTITLE3=George Jones - Least Of All
TTITLE4=Mickey Gilley - Lonely Wine
TTITLE5=Hoyt Axton - Red, White and Blue
TTITLE6=Gail Davies - Hallelujah, I Love Him So
TTITLE7=Ferlin Husky - Little Joe
TTITLE8=Carl Perkins - Honky Tonk Gal
TTITLE9=Bertie Higgins - Key Largo
TTITLE10=Merle Haggard - What Am I Gonna Do
TTITLE11=Oak Ridge Quartet - River Of Life
TTITLE12=Patsy Cline - Then You'll Know
TTITLE13=Tammy Wynette - Welcome To My World
TTITLE14=Willie Nelson - Go Away
TTITLE15=Tina Turner - If This Was Our Last Time
TTITLE16=Tex Ritter - Billy The Kid
TTITLE17=Terri Gibbs - Low Dog Blues
TTITLE18=Ronnie McDowell - Never Too Old To Rock and Roll
TTITLE19=Rex Allen Senior - Cool Water
EXTD=Disc 47 of 50 YEAR: 1999
EXTT0=
EXTT1=
EXTT2=
EXTT3=
EXTT4=
EXTT5=
EXTT6=
EXTT7=
EXTT8=
EXTT9=
EXTT10=
EXTT11=
EXTT12=
EXTT13=
EXTT14=
EXTT15=
EXTT16=
EXTT17=
EXTT18=
EXTT19=
PLAYORDER=
